<mxfile host="app.diagrams.net" modified="2024-01-16T04:00:36.530Z" agent="Mozilla/5.0 (Windows NT 10.0; Win64; x64) AppleWebKit/537.36 (KHTML, like Gecko) Chrome/120.0.0.0 Safari/537.36" etag="fTQkX2LyzjdvT_ebBm_D" version="22.1.18" type="github">
  <diagram name="Page-1" id="1XMby2Y9bVHlfGQoYC-g">
    <mxGraphModel dx="842" dy="500" grid="1" gridSize="10" guides="1" tooltips="1" connect="1" arrows="1" fold="1" page="1" pageScale="1" pageWidth="850" pageHeight="1100" math="0" shadow="0">
      <root>
        <mxCell id="0" />
        <mxCell id="1" parent="0" />
        <mxCell id="wxknf1ZDpgJDN8jg29Oh-31" style="edgeStyle=orthogonalEdgeStyle;rounded=0;orthogonalLoop=1;jettySize=auto;html=1;entryX=0.5;entryY=1;entryDx=0;entryDy=0;endArrow=none;endFill=0;" edge="1" parent="1" source="wxknf1ZDpgJDN8jg29Oh-32" target="wxknf1ZDpgJDN8jg29Oh-43">
          <mxGeometry relative="1" as="geometry" />
        </mxCell>
        <mxCell id="wxknf1ZDpgJDN8jg29Oh-32" value="User" style="rounded=0;whiteSpace=wrap;html=1;" vertex="1" parent="1">
          <mxGeometry x="210" y="180" width="120" height="60" as="geometry" />
        </mxCell>
        <mxCell id="wxknf1ZDpgJDN8jg29Oh-33" value="Comment&lt;br&gt;" style="shape=ext;margin=3;double=1;whiteSpace=wrap;html=1;align=center;" vertex="1" parent="1">
          <mxGeometry x="500" y="400" width="170" height="100" as="geometry" />
        </mxCell>
        <mxCell id="wxknf1ZDpgJDN8jg29Oh-34" value="Post" style="shape=ext;margin=3;double=1;whiteSpace=wrap;html=1;align=center;" vertex="1" parent="1">
          <mxGeometry x="470" y="100" width="160" height="70" as="geometry" />
        </mxCell>
        <mxCell id="wxknf1ZDpgJDN8jg29Oh-35" style="edgeStyle=orthogonalEdgeStyle;rounded=0;orthogonalLoop=1;jettySize=auto;html=1;exitX=1;exitY=0.5;exitDx=0;exitDy=0;entryX=0.5;entryY=1;entryDx=0;entryDy=0;endArrow=none;endFill=0;" edge="1" parent="1" source="wxknf1ZDpgJDN8jg29Oh-36" target="wxknf1ZDpgJDN8jg29Oh-40">
          <mxGeometry relative="1" as="geometry" />
        </mxCell>
        <mxCell id="wxknf1ZDpgJDN8jg29Oh-36" value="Fullname" style="ellipse;whiteSpace=wrap;html=1;align=center;" vertex="1" parent="1">
          <mxGeometry x="120" y="70" width="100" height="40" as="geometry" />
        </mxCell>
        <mxCell id="wxknf1ZDpgJDN8jg29Oh-37" style="edgeStyle=orthogonalEdgeStyle;rounded=0;orthogonalLoop=1;jettySize=auto;html=1;entryX=0.413;entryY=-0.026;entryDx=0;entryDy=0;entryPerimeter=0;endArrow=none;endFill=0;" edge="1" parent="1" source="wxknf1ZDpgJDN8jg29Oh-36" target="wxknf1ZDpgJDN8jg29Oh-32">
          <mxGeometry relative="1" as="geometry" />
        </mxCell>
        <mxCell id="wxknf1ZDpgJDN8jg29Oh-40" value="last_name" style="ellipse;whiteSpace=wrap;html=1;align=center;" vertex="1" parent="1">
          <mxGeometry x="210" y="10" width="100" height="40" as="geometry" />
        </mxCell>
        <mxCell id="wxknf1ZDpgJDN8jg29Oh-41" style="edgeStyle=orthogonalEdgeStyle;rounded=0;orthogonalLoop=1;jettySize=auto;html=1;exitX=0.5;exitY=1;exitDx=0;exitDy=0;entryX=0;entryY=0.5;entryDx=0;entryDy=0;endArrow=none;endFill=0;" edge="1" parent="1" source="wxknf1ZDpgJDN8jg29Oh-42" target="wxknf1ZDpgJDN8jg29Oh-36">
          <mxGeometry relative="1" as="geometry" />
        </mxCell>
        <mxCell id="wxknf1ZDpgJDN8jg29Oh-42" value="first_name" style="ellipse;whiteSpace=wrap;html=1;align=center;" vertex="1" parent="1">
          <mxGeometry x="50" y="10" width="100" height="40" as="geometry" />
        </mxCell>
        <mxCell id="wxknf1ZDpgJDN8jg29Oh-43" value="profile_img" style="ellipse;shape=doubleEllipse;margin=3;whiteSpace=wrap;html=1;align=center;" vertex="1" parent="1">
          <mxGeometry x="330" y="80" width="100" height="40" as="geometry" />
        </mxCell>
        <mxCell id="wxknf1ZDpgJDN8jg29Oh-44" style="edgeStyle=orthogonalEdgeStyle;rounded=0;orthogonalLoop=1;jettySize=auto;html=1;exitX=1;exitY=0.5;exitDx=0;exitDy=0;endArrow=none;endFill=0;" edge="1" parent="1" source="wxknf1ZDpgJDN8jg29Oh-45" target="wxknf1ZDpgJDN8jg29Oh-32">
          <mxGeometry relative="1" as="geometry">
            <Array as="points">
              <mxPoint x="90" y="320" />
              <mxPoint x="90" y="220" />
            </Array>
          </mxGeometry>
        </mxCell>
        <mxCell id="wxknf1ZDpgJDN8jg29Oh-45" value="age" style="ellipse;whiteSpace=wrap;html=1;align=center;dashed=1;" vertex="1" parent="1">
          <mxGeometry x="50" y="300" width="100" height="40" as="geometry" />
        </mxCell>
        <mxCell id="wxknf1ZDpgJDN8jg29Oh-46" style="edgeStyle=orthogonalEdgeStyle;rounded=0;orthogonalLoop=1;jettySize=auto;html=1;exitX=0;exitY=0.5;exitDx=0;exitDy=0;endArrow=none;endFill=0;" edge="1" parent="1" source="wxknf1ZDpgJDN8jg29Oh-47" target="wxknf1ZDpgJDN8jg29Oh-32">
          <mxGeometry relative="1" as="geometry">
            <Array as="points">
              <mxPoint x="440" y="40" />
              <mxPoint x="440" y="180" />
              <mxPoint x="350" y="180" />
              <mxPoint x="350" y="160" />
              <mxPoint x="300" y="160" />
            </Array>
          </mxGeometry>
        </mxCell>
        <mxCell id="wxknf1ZDpgJDN8jg29Oh-47" value="Birth_date" style="ellipse;whiteSpace=wrap;html=1;align=center;" vertex="1" parent="1">
          <mxGeometry x="300" y="20" width="110" height="40" as="geometry" />
        </mxCell>
        <mxCell id="wxknf1ZDpgJDN8jg29Oh-48" value="ID" style="ellipse;whiteSpace=wrap;html=1;align=center;" vertex="1" parent="1">
          <mxGeometry x="50" y="390" width="140" height="50" as="geometry" />
        </mxCell>
        <mxCell id="wxknf1ZDpgJDN8jg29Oh-49" style="edgeStyle=orthogonalEdgeStyle;rounded=0;orthogonalLoop=1;jettySize=auto;html=1;exitX=1;exitY=0;exitDx=0;exitDy=0;entryX=0.383;entryY=1.005;entryDx=0;entryDy=0;entryPerimeter=0;endArrow=none;endFill=0;" edge="1" parent="1" source="wxknf1ZDpgJDN8jg29Oh-48" target="wxknf1ZDpgJDN8jg29Oh-32">
          <mxGeometry relative="1" as="geometry">
            <Array as="points">
              <mxPoint x="170" y="250" />
            </Array>
          </mxGeometry>
        </mxCell>
        <mxCell id="wxknf1ZDpgJDN8jg29Oh-51" value="create" style="shape=rhombus;perimeter=rhombusPerimeter;whiteSpace=wrap;html=1;align=center;" vertex="1" parent="1">
          <mxGeometry x="210" y="420" width="120" height="60" as="geometry" />
        </mxCell>
        <mxCell id="wxknf1ZDpgJDN8jg29Oh-59" value="" style="endArrow=none;html=1;rounded=0;exitX=0.946;exitY=0.55;exitDx=0;exitDy=0;exitPerimeter=0;entryX=0;entryY=0.5;entryDx=0;entryDy=0;" edge="1" parent="1" source="wxknf1ZDpgJDN8jg29Oh-51" target="wxknf1ZDpgJDN8jg29Oh-33">
          <mxGeometry relative="1" as="geometry">
            <mxPoint x="340" y="430" as="sourcePoint" />
            <mxPoint x="480" y="410" as="targetPoint" />
          </mxGeometry>
        </mxCell>
        <mxCell id="wxknf1ZDpgJDN8jg29Oh-60" value="N" style="resizable=0;html=1;whiteSpace=wrap;align=right;verticalAlign=bottom;" connectable="0" vertex="1" parent="wxknf1ZDpgJDN8jg29Oh-59">
          <mxGeometry x="1" relative="1" as="geometry" />
        </mxCell>
        <mxCell id="wxknf1ZDpgJDN8jg29Oh-61" style="edgeStyle=orthogonalEdgeStyle;rounded=0;orthogonalLoop=1;jettySize=auto;html=1;exitX=0.5;exitY=1;exitDx=0;exitDy=0;" edge="1" parent="1" source="wxknf1ZDpgJDN8jg29Oh-51" target="wxknf1ZDpgJDN8jg29Oh-51">
          <mxGeometry relative="1" as="geometry" />
        </mxCell>
        <mxCell id="wxknf1ZDpgJDN8jg29Oh-63" value="" style="endArrow=none;html=1;rounded=0;exitX=0.5;exitY=1;exitDx=0;exitDy=0;" edge="1" parent="1" source="wxknf1ZDpgJDN8jg29Oh-32" target="wxknf1ZDpgJDN8jg29Oh-51">
          <mxGeometry relative="1" as="geometry">
            <mxPoint x="270" y="300" as="sourcePoint" />
            <mxPoint x="430" y="300" as="targetPoint" />
          </mxGeometry>
        </mxCell>
        <mxCell id="wxknf1ZDpgJDN8jg29Oh-64" value="1" style="resizable=0;html=1;whiteSpace=wrap;align=left;verticalAlign=bottom;" connectable="0" vertex="1" parent="wxknf1ZDpgJDN8jg29Oh-63">
          <mxGeometry x="-1" relative="1" as="geometry">
            <mxPoint y="50" as="offset" />
          </mxGeometry>
        </mxCell>
        <mxCell id="wxknf1ZDpgJDN8jg29Oh-66" value="like" style="shape=rhombus;perimeter=rhombusPerimeter;whiteSpace=wrap;html=1;align=center;" vertex="1" parent="1">
          <mxGeometry x="500" y="200" width="70" height="45" as="geometry" />
        </mxCell>
        <mxCell id="wxknf1ZDpgJDN8jg29Oh-67" value="" style="endArrow=none;html=1;rounded=0;exitX=0.907;exitY=0.467;exitDx=0;exitDy=0;exitPerimeter=0;" edge="1" parent="1" source="wxknf1ZDpgJDN8jg29Oh-66" target="wxknf1ZDpgJDN8jg29Oh-34">
          <mxGeometry relative="1" as="geometry">
            <mxPoint x="470" y="230" as="sourcePoint" />
            <mxPoint x="585" y="214.66" as="targetPoint" />
          </mxGeometry>
        </mxCell>
        <mxCell id="wxknf1ZDpgJDN8jg29Oh-68" value="M" style="resizable=0;html=1;whiteSpace=wrap;align=right;verticalAlign=bottom;" connectable="0" vertex="1" parent="wxknf1ZDpgJDN8jg29Oh-67">
          <mxGeometry x="1" relative="1" as="geometry" />
        </mxCell>
        <mxCell id="wxknf1ZDpgJDN8jg29Oh-69" value="" style="endArrow=none;html=1;rounded=0;entryX=0.027;entryY=0.406;entryDx=0;entryDy=0;entryPerimeter=0;exitX=1.003;exitY=0.636;exitDx=0;exitDy=0;exitPerimeter=0;" edge="1" parent="1" source="wxknf1ZDpgJDN8jg29Oh-32" target="wxknf1ZDpgJDN8jg29Oh-66">
          <mxGeometry relative="1" as="geometry">
            <mxPoint x="340" y="220" as="sourcePoint" />
            <mxPoint x="370" y="220" as="targetPoint" />
          </mxGeometry>
        </mxCell>
        <mxCell id="wxknf1ZDpgJDN8jg29Oh-70" value="M" style="resizable=0;html=1;whiteSpace=wrap;align=left;verticalAlign=bottom;" connectable="0" vertex="1" parent="wxknf1ZDpgJDN8jg29Oh-69">
          <mxGeometry x="-1" relative="1" as="geometry" />
        </mxCell>
      </root>
    </mxGraphModel>
  </diagram>
</mxfile>
